<svg width="58" height="61" viewBox="0 0 58 61" fill="none" xmlns="http://www.w3.org/2000/svg">
<path fill-rule="evenodd" clip-rule="evenodd" d="M16.9706 0.1815C20.0498 0.033 21.0315 0 28.875 0C36.7185 0 37.7003 0.03575 40.7768 0.1815C43.8533 0.32725 45.9532 0.8415 47.7907 1.58675C49.7149 2.3485 51.4605 3.53925 52.9042 5.07925C54.3742 6.589 55.5083 8.415 56.2328 10.4335C56.9468 12.3585 57.435 14.5585 57.5768 17.776C57.7185 21.0072 57.75 22.0357 57.75 30.25C57.75 38.467 57.7159 39.4955 57.5768 42.7212C57.4376 45.9388 56.9468 48.1387 56.2328 50.0638C55.5082 52.0825 54.3724 53.9115 52.9042 55.4235C51.4605 56.9635 49.7149 58.1515 47.7907 58.9105C45.9532 59.6585 43.8532 60.17 40.782 60.3185C37.7002 60.467 36.7185 60.5 28.875 60.5C21.0315 60.5 20.0498 60.4642 16.9706 60.3185C13.8994 60.1727 11.7994 59.6585 9.96187 58.9105C8.03492 58.1514 6.28903 56.9614 4.84575 55.4235C3.37675 53.9128 2.23995 52.0847 1.51463 50.0665C0.80325 48.1415 0.315 45.9415 0.17325 42.724C0.0315 39.4927 0 38.4642 0 30.25C0 22.033 0.034125 21.0045 0.17325 17.7815C0.312375 14.5585 0.80325 12.3585 1.51463 10.4335C2.24102 8.41522 3.37869 6.58711 4.84837 5.0765C6.28961 3.53788 8.03374 2.34697 9.95925 1.58675C11.7968 0.8415 13.8968 0.33 16.968 0.1815H16.9706ZM40.5431 5.6265C37.4981 5.48075 36.5846 5.4505 28.875 5.4505C21.1654 5.4505 20.2519 5.48075 17.2069 5.6265C14.3902 5.76125 12.8625 6.2535 11.844 6.66875C10.4974 7.21875 9.534 7.8705 8.52338 8.92925C7.56537 9.90564 6.8281 11.0943 6.36562 12.408C5.96925 13.475 5.49937 15.0755 5.37075 18.0262C5.23163 21.2162 5.20275 22.1733 5.20275 30.25C5.20275 38.3268 5.23163 39.2837 5.37075 42.4737C5.49937 45.4245 5.96925 47.025 6.36562 48.092C6.82762 49.4038 7.56525 50.5945 8.52338 51.5708C9.45525 52.5745 10.5919 53.3473 11.844 53.8313C12.8625 54.2465 14.3902 54.7388 17.2069 54.8735C20.2519 55.0193 21.1628 55.0495 28.875 55.0495C36.5872 55.0495 37.4981 55.0193 40.5431 54.8735C43.3597 54.7388 44.8875 54.2465 45.906 53.8313C47.2526 53.2813 48.216 52.6295 49.2266 51.5708C50.1847 50.5945 50.9224 49.4038 51.3844 48.092C51.7808 47.025 52.2506 45.4245 52.3792 42.4737C52.5184 39.2837 52.5472 38.3268 52.5472 30.25C52.5472 22.1733 52.5184 21.2162 52.3792 18.0262C52.2506 15.0755 51.7808 13.475 51.3844 12.408C50.8594 10.9973 50.2373 9.988 49.2266 8.92925C48.2946 7.9257 47.16 7.15333 45.906 6.66875C44.8875 6.2535 43.3597 5.76125 40.5431 5.6265ZM25.1869 39.5752C27.2466 40.4735 29.5401 40.5947 31.6757 39.9182C33.8113 39.2418 35.6564 37.8095 36.896 35.8662C38.1355 33.9228 38.6926 31.5889 38.4721 29.263C38.2516 26.9372 37.2671 24.7637 35.6869 23.1137C34.6795 22.0591 33.4614 21.2515 32.1204 20.7492C30.7793 20.2468 29.3486 20.0622 27.9313 20.2087C26.514 20.3551 25.1453 20.829 23.9237 21.5961C22.7022 22.3632 21.6582 23.4045 20.8669 24.6451C20.0756 25.8856 19.5567 27.2945 19.3476 28.7704C19.1385 30.2462 19.2443 31.7523 19.6574 33.1802C20.0706 34.608 20.7808 35.9222 21.7369 37.028C22.693 38.1338 23.8713 39.0038 25.1869 39.5752ZM18.3802 19.2555C19.7584 17.8117 21.3946 16.6664 23.1953 15.885C24.996 15.1036 26.9259 14.7014 28.875 14.7014C30.8241 14.7014 32.754 15.1036 34.5547 15.885C36.3554 16.6664 37.9916 17.8117 39.3698 19.2555C40.7479 20.6993 41.8412 22.4134 42.5871 24.2998C43.3329 26.1863 43.7168 28.2081 43.7168 30.25C43.7168 32.2919 43.3329 34.3137 42.5871 36.2002C41.8412 38.0866 40.7479 39.8007 39.3698 41.2445C36.5864 44.1604 32.8113 45.7986 28.875 45.7986C24.9387 45.7986 21.1636 44.1604 18.3802 41.2445C15.5969 38.3286 14.0332 34.3737 14.0332 30.25C14.0332 26.1263 15.5969 22.1714 18.3802 19.2555ZM47.0085 17.017C47.35 16.6795 47.6234 16.2736 47.8125 15.8234C48.0017 15.3732 48.1026 14.8879 48.1095 14.3961C48.1163 13.9043 48.0289 13.416 47.8524 12.9602C47.6759 12.5044 47.4139 12.0904 47.0819 11.7426C46.7499 11.3948 46.3547 11.1203 45.9196 10.9354C45.4846 10.7505 45.0185 10.6589 44.5491 10.6661C44.0796 10.6733 43.6163 10.779 43.1866 10.9772C42.7568 11.1753 42.3694 11.4617 42.0472 11.8195C41.4207 12.5153 41.0777 13.4396 41.091 14.3961C41.1043 15.3525 41.4729 16.2659 42.1185 16.9423C42.7642 17.6187 43.6361 18.0049 44.5491 18.0188C45.4621 18.0328 46.3443 17.6734 47.0085 17.017Z" fill="#444444"/>
</svg>
