<svg width="66" height="66" viewBox="0 0 66 66" fill="none" xmlns="http://www.w3.org/2000/svg">
<path d="M61.1145 0H4.87266C2.17852 0 0 2.12695 0 4.75664V61.2305C0 63.8602 2.17852 66 4.87266 66H61.1145C63.8086 66 66 63.8602 66 61.2434V4.75664C66 2.12695 63.8086 0 61.1145 0ZM19.5809 56.2418H9.78399V24.7371H19.5809V56.2418ZM14.6824 20.4445C11.5371 20.4445 8.99766 17.9051 8.99766 14.7727C8.99766 11.6402 11.5371 9.10078 14.6824 9.10078C17.8148 9.10078 20.3543 11.6402 20.3543 14.7727C20.3543 17.8922 17.8148 20.4445 14.6824 20.4445ZM56.2418 56.2418H46.4578V40.9277C46.4578 37.2797 46.3934 32.5746 41.366 32.5746C36.2742 32.5746 35.5008 36.5578 35.5008 40.6699V56.2418H25.7297V24.7371H35.1141V29.0426H35.243C36.5449 26.5676 39.7418 23.9508 44.4984 23.9508C54.4113 23.9508 56.2418 30.4734 56.2418 38.9555V56.2418Z" fill="black"/>
</svg>
