<svg width="67" height="66" viewBox="0 0 67 66" fill="none" xmlns="http://www.w3.org/2000/svg">
<path d="M66.0048 13.5767C63.6737 14.5942 61.1696 15.2817 58.5371 15.5925C61.2534 13.9914 63.2855 11.4715 64.2544 8.50297C61.7024 9.99619 58.9093 11.0473 55.9966 11.6105C54.038 9.55035 51.4436 8.18486 48.6164 7.72602C45.7892 7.26718 42.8873 7.74064 40.3612 9.07291C37.8351 10.4052 35.8262 12.5217 34.6464 15.0939C33.4666 17.6661 33.1819 20.55 33.8364 23.298C28.6654 23.0422 23.6067 21.7182 18.9887 19.412C14.3707 17.1057 10.2966 13.8687 7.03081 9.91097C5.91415 11.8085 5.27206 14.0085 5.27206 16.3515C5.27082 18.4607 5.7981 20.5376 6.80714 22.398C7.81618 24.2583 9.27576 25.8446 11.0564 27.016C8.99133 26.9512 6.97183 26.4016 5.16598 25.4127V25.5777C5.16577 28.536 6.20457 31.4033 8.10611 33.693C10.0077 35.9827 12.6548 37.5538 15.5984 38.1397C13.6828 38.6504 11.6743 38.7257 9.72477 38.3597C10.5553 40.9052 12.173 43.131 14.3516 44.7258C16.5301 46.3205 19.1604 47.2042 21.8741 47.2532C17.2674 50.8156 11.5781 52.748 5.72152 52.7395C4.68408 52.7397 3.64753 52.6801 2.61719 52.5607C8.56198 56.3259 15.4821 58.3242 22.5497 58.3165C46.4743 58.3165 59.5532 38.797 59.5532 21.868C59.5532 21.318 59.5393 20.7625 59.5141 20.2125C62.0582 18.4001 64.2541 16.1559 65.9992 13.585L66.0048 13.5767Z" fill="black"/>
</svg>
